HIERARCHY
ROOT Hips
{
 OFFSET 0.000000 0.000000 0.000000
 CHANNELS 6 Xposition Yposition Zposition Yrotation Xrotation Zrotation
 JOINT Chest
 {
  OFFSET 0.000000 9.585900 0.002600
  CHANNELS 3 Yrotation Xrotation Zrotation
  JOINT Chest2
  {
   OFFSET 0.000000 9.601200 -0.005300
   CHANNELS 3 Yrotation Xrotation Zrotation
   JOINT Chest3
   {
    OFFSET 0.000000 9.561800 0.000000
    CHANNELS 3 Yrotation Xrotation Zrotation
    JOINT Chest4
    {
     OFFSET 0.000000 9.552100 0.000000
     CHANNELS 3 Yrotation Xrotation Zrotation
     JOINT Neck
     {
      OFFSET 0.000000 14.453000 0.000000
      CHANNELS 3 Yrotation Xrotation Zrotation
      JOINT Head
      {
       OFFSET 0.000000 8.936500 -0.011300
       CHANNELS 3 Yrotation Xrotation Zrotation
       End Site
       {
        OFFSET 0.000000 17.073600 -0.006000
       }
      }
     }
     JOINT RightCollar
     {
      OFFSET -2.921100 9.558500 0.000000
      CHANNELS 3 Yrotation Xrotation Zrotation
      JOINT RightShoulder
      {
       OFFSET -13.519700 0.000000 0.000000
       CHANNELS 3 Yrotation Xrotation Zrotation
       JOINT RightElbow
       {
        OFFSET 0.000000 -29.696600 0.000000
        CHANNELS 3 Yrotation Xrotation Zrotation
        JOINT RightWrist
        {
         OFFSET 0.000000 -24.004700 0.000000
         CHANNELS 3 Yrotation Xrotation Zrotation
         End Site
         {
          OFFSET 0.000000 -17.728500 0.000000
         }
        }
       }
      }
     }
     JOINT LeftCollar
     {
      OFFSET 2.921100 9.558500 0.000000
      CHANNELS 3 Yrotation Xrotation Zrotation
      JOINT LeftShoulder
      {
       OFFSET 13.519700 0.000000 0.000000
       CHANNELS 3 Yrotation Xrotation Zrotation
       JOINT LeftElbow
       {
        OFFSET 0.000000 -29.696600 0.000000
        CHANNELS 3 Yrotation Xrotation Zrotation
        JOINT LeftWrist
        {
         OFFSET 0.000000 -24.004700 0.000000
         CHANNELS 3 Yrotation Xrotation Zrotation
         End Site
         {
          OFFSET 0.000000 -17.728500 0.000000
         }
        }
       }
      }
     }
    }
   }
  }
 }
 JOINT RightHip
 {
  OFFSET -7.771700 -0.012900 -0.001300
  CHANNELS 3 Yrotation Xrotation Zrotation
  JOINT RightKnee
  {
   OFFSET 0.000000 -40.869800 0.001200
   CHANNELS 3 Yrotation Xrotation Zrotation
   JOINT RightAnkle
   {
    OFFSET 0.000000 -39.717900 0.002100
    CHANNELS 3 Yrotation Xrotation Zrotation
    JOINT RightToe
    {
     OFFSET 0.000000 -4.965400 11.033500
     CHANNELS 3 Yrotation Xrotation Zrotation
     End Site
     {
      OFFSET 0.000000 -1.423100 5.872300
     }
    }
   }
  }
 }
 JOINT LeftHip
 {
  OFFSET 7.771700 -0.012900 -0.001300
  CHANNELS 3 Yrotation Xrotation Zrotation
  JOINT LeftKnee
  {
   OFFSET 0.000000 -40.869800 0.001200
   CHANNELS 3 Yrotation Xrotation Zrotation
   JOINT LeftAnkle
   {
    OFFSET 0.000000 -39.717900 0.002100
    CHANNELS 3 Yrotation Xrotation Zrotation
    JOINT LeftToe
    {
     OFFSET 0.000000 -4.965400 11.033500
     CHANNELS 3 Yrotation Xrotation Zrotation
     End Site
     {
      OFFSET 0.000000 -1.423100 5.872300
     }
    }
   }
  }
 }
}
MOTION
Frames: 11
Frame Time: 0.008333
0.000000 85.388000 0.000000 0.000000 -5.767877 0.000000 0.000000 11.653817 0.000000 0.000000 -5.885947 0.000000 0.000000 -0.000000 0.000000 0.000000 -0.000000 0.000000 0.000000 12.528835 0.000000 0.000000 0.711642 0.000000 0.000000 -0.000000 0.000000 0.000000 0.000000 -90.000000 0.000000 -2.309062 0.000000 0.000000 2.309062 0.000000 0.000000 -0.000000 0.000000 0.000000 -0.000000 90.000000 0.000000 -2.309062 0.000000 0.000000 2.309062 0.000000 0.000000 8.520406 0.000000 0.000000 1.905762 0.000000 -0.000000 -4.658285 0.000000 0.000000 -0.000000 0.000000 0.000000 8.520406 0.000000 0.000000 1.905762 0.000000 -0.000000 -4.658285 0.000000 0.000000 -0.000000 0.000000
-86.823844 50.389273 -9.712820 164.085950 -8.846034 0.338740 2.929452 5.377165 1.513279 0.103489 0.196945 0.023105 0.182710 0.347508 0.040884 2.754888 5.152319 0.720951 2.859460 17.560443 -0.131543 5.299551 -3.175540 -1.217063 0.334973 5.722297 -0.301417 -23.979228 -13.353862 -4.217329 -76.872748 -57.402991 88.197033 -12.315459 -8.819017 -17.419276 -0.893264 0.858119 0.796053 31.251845 -7.573663 5.217461 67.233109 -56.425739 -89.355317 11.243002 -4.465411 0.946719 -0.470154 -71.775113 -3.291922 -171.580225 84.409880 -171.667213 -8.616246 -15.633307 1.676145 -0.022463 0.140319 -0.024195 -9.513416 -75.392490 24.580896 119.253229 79.328376 116.439317 -16.255787 -22.130249 0.421306 -0.390737 -1.466769 -0.150926
-86.822308 50.391897 -9.714571 164.091442 -8.830526 0.341139 2.926517 5.366252 1.507621 0.114914 0.212270 0.016720 0.171660 0.331905 0.047100 2.778099 5.158825 0.710083 2.858953 17.572845 -0.118658 5.306773 -3.119257 -1.177812 0.356158 5.725299 -0.270829 -24.016127 -13.368052 -4.221057 -76.868411 -57.392398 88.259584 -12.323675 -8.792507 -17.362534 -0.872778 0.881824 0.809217 31.184317 -7.547637 5.257388 67.088906 -56.492603 -89.322047 11.200248 -4.407026 0.919330 -0.484673 -71.786842 -3.288115 -171.620053 84.411237 -171.705460 -8.617023 -15.634746 1.672001 -0.013237 0.138585 -0.023302 -9.494621 -75.402454 24.558917 119.223631 79.330956 116.410921 -16.249030 -22.143371 0.418826 -0.387210 -1.438871 -0.152119
-86.824580 50.394537 -9.715636 164.097436 -8.799333 0.366196 2.934362 5.356424 1.472262 0.117081 0.217778 0.016183 0.170719 0.325160 0.047131 2.785906 5.151007 0.707669 2.853724 17.579334 -0.107194 5.306895 -3.077759 -1.152766 0.418626 5.735649 -0.239139 -24.085535 -13.380023 -4.203827 -76.890468 -57.408879 88.292774 -12.346092 -8.766336 -17.295279 -0.880634 0.880641 0.822546 31.155304 -7.496797 5.303919 66.945946 -56.563640 -89.299618 11.163699 -4.352871 0.890412 -0.446244 -71.819196 -3.343419 -171.666281 84.409604 -171.758544 -8.617799 -15.635345 1.671410 -0.017455 0.137931 -0.023029 -9.426239 -75.432073 24.486827 119.221163 79.340348 116.407446 -16.295071 -22.140467 0.432700 -0.347131 -1.437080 -0.151482
-86.822075 50.397263 -9.715355 164.090331 -8.763413 0.365345 2.955069 5.342171 1.467255 0.116712 0.216434 0.015630 0.184683 0.344852 0.039734 2.782114 5.121356 0.708632 2.840937 17.573647 -0.094435 5.307770 -3.046288 -1.140739 0.439158 5.733287 -0.222123 -24.098223 -13.362712 -4.167251 -76.919983 -57.403568 88.476039 -12.283462 -8.806388 -17.436592 -0.847748 0.908780 0.836160 31.099918 -7.500515 5.308923 66.746872 -56.644453 -89.222297 11.131635 -4.303826 0.864796 -0.511643 -71.852455 -3.282155 -171.671866 84.415514 -171.770918 -8.606998 -15.633134 1.657607 -0.020597 0.136858 -0.021451 -9.468154 -75.459959 24.535904 119.265455 79.350106 116.439493 -16.254398 -22.156789 0.438011 -0.367878 -1.424497 -0.162214
-86.817735 50.400215 -9.716652 164.090502 -8.735709 0.356932 2.977622 5.349917 1.464418 0.104787 0.195102 0.022151 0.185117 0.344277 0.039322 2.794199 5.116529 0.699669 2.839270 17.587967 -0.080425 5.295249 -3.059105 -1.133346 0.456238 5.733563 -0.205630 -24.120538 -13.357189 -4.143587 -76.962728 -57.397929 88.621513 -12.279522 -8.798090 -17.456420 -0.783866 0.954805 0.840112 31.016685 -7.471713 5.355720 66.665620 -56.704537 -89.279978 11.098192 -4.261086 0.842163 -0.556496 -71.874219 -3.237312 -171.682788 84.419170 -171.779577 -8.603451 -15.633614 1.649645 -0.023806 0.136236 -0.018972 -9.544740 -75.476806 24.610760 119.288588 79.356225 116.454600 -16.227999 -22.183744 0.446280 -0.370822 -1.402627 -0.176237
-86.813461 50.403247 -9.719889 164.080321 -8.715622 0.354962 2.991018 5.334748 1.465505 0.114352 0.210068 0.017330 0.175806 0.328998 0.043852 2.801792 5.116125 0.693778 2.857450 17.630698 -0.085788 5.277243 -3.058017 -1.104994 0.477802 5.738665 -0.197859 -24.135299 -13.351356 -4.119986 -77.027473 -57.408314 88.754935 -12.286880 -8.793143 -17.458060 -0.754850 0.973572 0.839659 30.976140 -7.405205 5.413419 66.612064 -56.763280 -89.365491 11.063855 -4.221672 0.819841 -0.574252 -71.888840 -3.211860 -171.673534 84.420814 -171.766682 -8.595847 -15.637572 1.640936 -0.021399 0.138673 -0.016081 -9.592682 -75.487268 24.664568 119.375031 79.376983 116.541349 -16.202141 -22.206365 0.439256 -0.369010 -1.398084 -0.173383
-86.810941 50.405814 -9.722489 164.091453 -8.685978 0.360023 2.993157 5.325318 1.452661 0.116455 0.215376 0.014964 0.174130 0.321713 0.045294 2.799101 5.100714 0.692667 2.860049 17.648061 -0.084667 5.269539 -3.031545 -1.083066 0.482469 5.739434 -0.190672 -24.130985 -13.341890 -4.100936 -77.079545 -57.426756 88.829993 -12.296185 -8.791976 -17.433518 -0.722927 0.988959 0.842592 30.927701 -7.345732 5.450937 66.548459 -56.825728 -89.429812 11.031311 -4.182816 0.800596 -0.599047 -71.914361 -3.208513 -171.664832 84.418598 -171.756762 -8.581684 -15.648324 1.629359 -0.024826 0.140690 -0.016164 -9.627668 -75.509403 24.684575 119.381182 79.382160 116.539343 -16.188185 -22.215755 0.437669 -0.384845 -1.392434 -0.177379
-86.807364 50.408178 -9.725905 164.105510 -8.660103 0.361059 3.002913 5.341761 1.436517 0.105341 0.192580 0.020979 0.174171 0.321590 0.045655 2.825363 5.092442 0.667135 2.842288 17.652470 -0.056288 5.262007 -3.004516 -1.063990 0.461391 5.729901 -0.156649 -24.127092 -13.334036 -4.081849 -77.125905 -57.448148 88.900084 -12.305724 -8.794527 -17.415602 -0.717028 0.989726 0.878633 30.873528 -7.278505 5.479868 66.496355 -56.880800 -89.500912 10.998083 -4.145869 0.788084 -0.646479 -71.935324 -3.175913 -171.630132 84.414169 -171.731382 -8.577501 -15.659399 1.627408 -0.019312 0.143301 -0.015360 -9.670178 -75.525764 24.709776 119.373967 79.388223 116.522928 -16.162916 -22.228416 0.433684 -0.362287 -1.388679 -0.174328
-86.805608 50.409814 -9.727683 164.111704 -8.619236 0.372145 3.008054 5.320216 1.414351 0.105374 0.191632 0.020597 0.174198 0.322376 0.047504 2.823121 5.074864 0.665269 2.840833 17.663062 -0.053605 5.253602 -2.976093 -1.040817 0.496442 5.729586 -0.163120 -24.158420 -13.322140 -4.049489 -77.195353 -57.472579 89.036917 -12.295238 -8.798080 -17.421660 -0.694245 0.994386 0.890993 30.822408 -7.206473 5.505572 66.547174 -56.907626 -89.608266 10.954211 -4.054447 0.745855 -0.684063 -71.976376 -3.147711 -171.600314 84.409748 -171.719991 -8.576883 -15.666240 1.626295 -0.018260 0.144940 -0.014236 -9.673028 -75.557058 24.704409 119.349023 79.396467 116.493007 -16.169204 -22.243212 0.434134 -0.371445 -1.382674 -0.174427
-86.802573 50.410978 -9.728669 164.120459 -8.573850 0.375174 3.005349 5.283844 1.403244 0.112257 0.200010 0.014607 0.173063 0.321325 0.047418 2.835133 5.060425 0.650993 2.827681 17.663314 -0.028602 5.243251 -2.940413 -1.027973 0.483246 5.726587 -0.138861 -24.157516 -13.319487 -4.041339 -77.241819 -57.499972 89.165448 -12.298150 -8.798075 -17.510471 -0.705692 0.993604 0.918962 30.799612 -7.169972 5.518572 66.393178 -56.941866 -89.601743 10.941800 -4.056993 0.760386 -0.694410 -72.020161 -3.148961 -171.618639 84.406492 -171.733576 -8.579204 -15.673612 1.622182 -0.021506 0.146110 -0.013409 -9.706469 -75.591854 24.729914 119.313081 79.402100 116.449675 -16.165221 -22.256971 0.437236 -0.370738 -1.375215 -0.176342
